<svg xmlns="http://www.w3.org/2000/svg" xmlns:xlink="http://www.w3.org/1999/xlink" preserveAspectRatio="xMidYMid" width="1181" height="1181" viewBox="0 0 1181 1181">
  <defs>
    <style>
      .cls-1 {
        fill: #000;
        fill-rule: evenodd;
      }

      .cls-2 {
        stroke: #000;
        stroke-width: 100px;
        fill: none;
      }
    </style>
  </defs>
  <g>
    <path d="M871.180,809.787 L995.313,809.787 L828.746,545.688 L986.446,366.455 L859.780,366.455 L747.680,500.721 L699.547,557.721 L697.647,557.721 L697.647,489.321 L697.647,366.455 L591.247,366.455 L591.247,809.787 L697.647,809.787 L697.647,681.854 L750.213,622.954 L871.180,809.787 Z" class="cls-1"/>
    <rect width="1181" height="1181" class="cls-2"/>
    <path d="M502.446,364.041 L396.046,364.041 L396.046,600.274 C396.046,678.173 385.913,715.540 325.113,715.540 C301.680,715.540 284.580,709.207 268.746,690.840 L207.313,772.540 C234.546,801.040 274.446,816.240 326.379,816.240 C442.912,816.240 502.446,742.773 502.446,610.407 L502.446,364.041 Z" class="cls-1"/>
  </g>
</svg>
